<!-- Icon made from Icon Fonts http://www.onlinewebfonts.com/icon and is licensed by CC BY 3.0--><svg xmlns="http://www.w3.org/2000/svg" viewBox="0 0 1000 1000"><path d="M675.8 88.5H483.3c-17-45.1-60.2-77.5-111-78.4-.4 0-.7-.1-1.1-.1H370c-.4 0-.7.1-1.1.1-50.8.9-93.5 33.4-110.5 78.4h-36.3c-30.5 0-55.3 24.8-55.3 55.3v790.9c0 30.5 24.8 55.3 55.3 55.3h555.8c30.5 0 55.3-24.8 55.3-55.3V259.5l-157.4-171zm13.1 82.7l69 74.9h-69v-74.9zm-318.3-108c21.1.2 39.9 10 52.3 25.3H318.8c12.3-15.2 30.8-25.1 51.8-25.3zm416.1 871.5c0 4.9-4 8.9-8.9 8.9H222.1c-4.9 0-8.8-4-8.8-8.9V143.8c0-4.9 4-8.8 8.8-8.8H438v220.7c0 37.5-30.5 67.9-67.9 67.9-37.5 0-67.9-30.5-67.9-67.9V231.5v-.2-.2c0-12 9.8-21.8 21.8-21.8s21.8 9.8 21.8 21.8v103.5c0 14.7 11.9 26.6 26.6 26.6 14.7 0 26.6-11.9 26.6-26.6V231.1c0-41.3-33.6-74.9-74.9-74.9-41.3 0-74.9 33.6-74.9 74.9v124.5c0 66.8 54.3 121.1 121.1 121.1s121.1-54.3 121.1-121.1V135h151.3v134.4c0 12.8 10.4 23.2 23.2 23.2H787l-.3 642.1z"/></svg>
